# xmcd CD database file
#
# Track frame offsets:
#	150
#	14495
#	31108
#
# Disc length: 602 seconds
#
# Revision: 0
# Processed by: cddbd v1.5.1PL2 Copyright (c) Steve Scherf et al.
# Submitted via: CDex 1.51
#
DISCID=18025803
DTITLE=KOTO - What's up?
DYEAR=2005
DGENRE=JPop
TTITLE0=What's up?
TTITLE1=Don't worry
TTITLE2=SOMEONE
EXTD=YEAR: 2005
EXTT0=
EXTT1=
EXTT2=
PLAYORDER=
